<svg width="42" height="42" viewBox="0 0 42 42" fill="none" xmlns="http://www.w3.org/2000/svg">
<path d="M20.656 4.13119C29.7859 4.13119 37.1807 11.526 37.1807 20.656C37.1807 29.7859 29.7859 37.1807 20.656 37.1807C11.526 37.1807 4.13119 29.7859 4.13119 20.656C4.13119 11.526 11.526 4.13119 20.656 4.13119ZM20.656 0C9.25387 0 0 9.25387 0 20.656C0 32.058 9.25387 41.3119 20.656 41.3119C32.058 41.3119 41.3119 32.058 41.3119 20.656C41.3119 9.25387 32.058 0 20.656 0Z" fill="white"/>
<path d="M15.9877 11.2368L30.4055 20.5733L15.9877 29.9098V11.2368Z" fill="#864AF9"/>
</svg>
