<svg width="252" height="42" viewBox="0 0 252 42" fill="none" xmlns="http://www.w3.org/2000/svg">
          <path d="M20.656 4.13119C29.7859 4.13119 37.1807 11.526 37.1807 20.656C37.1807 29.7859 29.7859 37.1807 20.656 37.1807C11.526 37.1807 4.13119 29.7859 4.13119 20.656C4.13119 11.526 11.526 4.13119 20.656 4.13119ZM20.656 0C9.25387 0 0 9.25387 0 20.656C0 32.058 9.25387 41.3119 20.656 41.3119C32.058 41.3119 41.3119 32.058 41.3119 20.656C41.3119 9.25387 32.058 0 20.656 0Z" fill="black"></path>
          <path d="M15.9877 11.2368L30.4055 20.5733L15.9877 29.9098V11.2368Z" fill="#864AF9"></path>
          <path d="M57.5159 30.6559L49.0599 11.0559H53.9599L61.3519 28.4159H58.4679L65.9719 11.0559H70.4799L61.9959 30.6559H57.5159ZM71.7745 30.6559V15.5919H76.1425V30.6559H71.7745ZM73.9585 13.4919C73.1558 13.4919 72.5025 13.2586 71.9985 12.7919C71.4945 12.3253 71.2425 11.7466 71.2425 11.0559C71.2425 10.3653 71.4945 9.78661 71.9985 9.31994C72.5025 8.85328 73.1558 8.61994 73.9585 8.61994C74.7611 8.61994 75.4145 8.84394 75.9185 9.29194C76.4225 9.72128 76.6745 10.2813 76.6745 10.9719C76.6745 11.6999 76.4225 12.3066 75.9185 12.7919C75.4331 13.2586 74.7798 13.4919 73.9585 13.4919ZM86.3843 30.8799C84.9657 30.8799 83.687 30.5626 82.5483 29.9279C81.4097 29.2746 80.5043 28.3693 79.8323 27.2119C79.179 26.0546 78.8523 24.6919 78.8523 23.1239C78.8523 21.5373 79.179 20.1653 79.8323 19.0079C80.5043 17.8506 81.4097 16.9546 82.5483 16.3199C83.687 15.6853 84.9657 15.3679 86.3843 15.3679C87.6537 15.3679 88.7643 15.6479 89.7163 16.2079C90.6683 16.7679 91.4057 17.6173 91.9283 18.7559C92.451 19.8946 92.7123 21.3506 92.7123 23.1239C92.7123 24.8786 92.4603 26.3346 91.9563 27.4919C91.4523 28.6306 90.7243 29.4799 89.7723 30.0399C88.839 30.5999 87.7097 30.8799 86.3843 30.8799ZM87.1403 27.2959C87.8497 27.2959 88.4937 27.1279 89.0723 26.7919C89.651 26.4559 90.1083 25.9799 90.4443 25.3639C90.799 24.7293 90.9763 23.9826 90.9763 23.1239C90.9763 22.2466 90.799 21.4999 90.4443 20.8839C90.1083 20.2679 89.651 19.7919 89.0723 19.4559C88.4937 19.1199 87.8497 18.9519 87.1403 18.9519C86.4123 18.9519 85.759 19.1199 85.1803 19.4559C84.6017 19.7919 84.135 20.2679 83.7803 20.8839C83.4443 21.4999 83.2763 22.2466 83.2763 23.1239C83.2763 23.9826 83.4443 24.7293 83.7803 25.3639C84.135 25.9799 84.6017 26.4559 85.1803 26.7919C85.759 27.1279 86.4123 27.2959 87.1403 27.2959ZM91.0883 30.6559V27.5759L91.1723 23.0959L90.8923 18.6439V9.87994H95.2603V30.6559H91.0883ZM106.499 30.8799C104.782 30.8799 103.27 30.5439 101.963 29.8719C100.675 29.1999 99.6764 28.2853 98.967 27.1279C98.2577 25.9519 97.903 24.6173 97.903 23.1239C97.903 21.6119 98.2484 20.2773 98.939 19.1199C99.6484 17.9439 100.61 17.0293 101.823 16.3759C103.036 15.7039 104.408 15.3679 105.939 15.3679C107.414 15.3679 108.739 15.6853 109.915 16.3199C111.11 16.9359 112.052 17.8319 112.743 19.0079C113.434 20.1653 113.779 21.5559 113.779 23.1799C113.779 23.3479 113.77 23.5439 113.751 23.7679C113.732 23.9733 113.714 24.1693 113.695 24.3559H101.459V21.8079H111.399L109.719 22.5639C109.719 21.7799 109.56 21.0986 109.243 20.5199C108.926 19.9413 108.487 19.4933 107.927 19.1759C107.367 18.8399 106.714 18.6719 105.967 18.6719C105.22 18.6719 104.558 18.8399 103.979 19.1759C103.419 19.4933 102.98 19.9506 102.663 20.5479C102.346 21.1266 102.187 21.8173 102.187 22.6199V23.2919C102.187 24.1133 102.364 24.8413 102.719 25.4759C103.092 26.0919 103.606 26.5679 104.259 26.9039C104.931 27.2213 105.715 27.3799 106.611 27.3799C107.414 27.3799 108.114 27.2586 108.711 27.0159C109.327 26.7733 109.887 26.4093 110.391 25.9239L112.715 28.4439C112.024 29.2279 111.156 29.8346 110.111 30.2639C109.066 30.6746 107.862 30.8799 106.499 30.8799ZM123.575 30.8799C121.97 30.8799 120.542 30.5439 119.291 29.8719C118.059 29.1999 117.079 28.2853 116.351 27.1279C115.642 25.9519 115.287 24.6173 115.287 23.1239C115.287 21.6119 115.642 20.2773 116.351 19.1199C117.079 17.9439 118.059 17.0293 119.291 16.3759C120.542 15.7039 121.97 15.3679 123.575 15.3679C125.162 15.3679 126.58 15.7039 127.831 16.3759C129.082 17.0293 130.062 17.9346 130.771 19.0919C131.48 20.2493 131.835 21.5933 131.835 23.1239C131.835 24.6173 131.48 25.9519 130.771 27.1279C130.062 28.2853 129.082 29.1999 127.831 29.8719C126.58 30.5439 125.162 30.8799 123.575 30.8799ZM123.575 27.2959C124.303 27.2959 124.956 27.1279 125.535 26.7919C126.114 26.4559 126.571 25.9799 126.907 25.3639C127.243 24.7293 127.411 23.9826 127.411 23.1239C127.411 22.2466 127.243 21.4999 126.907 20.8839C126.571 20.2679 126.114 19.7919 125.535 19.4559C124.956 19.1199 124.303 18.9519 123.575 18.9519C122.847 18.9519 122.194 19.1199 121.615 19.4559C121.036 19.7919 120.57 20.2679 120.215 20.8839C119.879 21.4999 119.711 22.2466 119.711 23.1239C119.711 23.9826 119.879 24.7293 120.215 25.3639C120.57 25.9799 121.036 26.4559 121.615 26.7919C122.194 27.1279 122.847 27.2959 123.575 27.2959Z" fill="#864AF9"></path>
          <path d="M144.163 30.9919C142.651 30.9919 141.241 30.7493 139.935 30.2639C138.647 29.7599 137.527 29.0506 136.575 28.1359C135.623 27.2213 134.876 26.1479 134.335 24.9159C133.812 23.6839 133.551 22.3306 133.551 20.8559C133.551 19.3813 133.812 18.0279 134.335 16.7959C134.876 15.5639 135.623 14.4906 136.575 13.5759C137.545 12.6613 138.675 11.9613 139.963 11.4759C141.251 10.9719 142.66 10.7199 144.191 10.7199C145.889 10.7199 147.42 11.0186 148.783 11.6159C150.164 12.1946 151.321 13.0533 152.255 14.1919L149.343 16.8799C148.671 16.1146 147.924 15.5453 147.103 15.1719C146.281 14.7799 145.385 14.5839 144.415 14.5839C143.5 14.5839 142.66 14.7333 141.895 15.0319C141.129 15.3306 140.467 15.7599 139.907 16.3199C139.347 16.8799 138.908 17.5426 138.591 18.3079C138.292 19.0733 138.143 19.9226 138.143 20.8559C138.143 21.7893 138.292 22.6386 138.591 23.4039C138.908 24.1693 139.347 24.8319 139.907 25.3919C140.467 25.9519 141.129 26.3813 141.895 26.6799C142.66 26.9786 143.5 27.1279 144.415 27.1279C145.385 27.1279 146.281 26.9413 147.103 26.5679C147.924 26.1759 148.671 25.5879 149.343 24.8039L152.255 27.4919C151.321 28.6306 150.164 29.4986 148.783 30.0959C147.42 30.6933 145.88 30.9919 144.163 30.9919ZM154.73 30.6559V15.5919H158.902V19.8479L158.314 18.6159C158.762 17.5519 159.481 16.7493 160.47 16.2079C161.459 15.6479 162.663 15.3679 164.082 15.3679V19.3999C163.895 19.3813 163.727 19.3719 163.578 19.3719C163.429 19.3533 163.27 19.3439 163.102 19.3439C161.907 19.3439 160.937 19.6893 160.19 20.3799C159.462 21.0519 159.098 22.1066 159.098 23.5439V30.6559H154.73ZM174.655 30.6559V27.7159L174.375 27.0719V21.8079C174.375 20.8746 174.085 20.1466 173.507 19.6239C172.947 19.1013 172.079 18.8399 170.903 18.8399C170.1 18.8399 169.307 18.9706 168.523 19.2319C167.757 19.4746 167.104 19.8106 166.563 20.2399L164.995 17.1879C165.816 16.6093 166.805 16.1613 167.963 15.8439C169.12 15.5266 170.296 15.3679 171.491 15.3679C173.787 15.3679 175.569 15.9093 176.839 16.9919C178.108 18.0746 178.743 19.7639 178.743 22.0599V30.6559H174.655ZM170.063 30.8799C168.887 30.8799 167.879 30.6839 167.039 30.2919C166.199 29.8813 165.555 29.3306 165.107 28.6399C164.659 27.9493 164.435 27.1746 164.435 26.3159C164.435 25.4199 164.649 24.6359 165.079 23.9639C165.527 23.2919 166.227 22.7693 167.179 22.3959C168.131 22.0039 169.372 21.8079 170.903 21.8079H174.907V24.3559H171.379C170.352 24.3559 169.643 24.5239 169.251 24.8599C168.877 25.1959 168.691 25.6159 168.691 26.1199C168.691 26.6799 168.905 27.1279 169.335 27.4639C169.783 27.7813 170.389 27.9399 171.155 27.9399C171.883 27.9399 172.536 27.7719 173.115 27.4359C173.693 27.0813 174.113 26.5679 174.375 25.8959L175.047 27.9119C174.729 28.8826 174.151 29.6199 173.311 30.1239C172.471 30.6279 171.388 30.8799 170.063 30.8799ZM182.948 30.6559V15.2559C182.948 13.5573 183.452 12.2039 184.46 11.1959C185.468 10.1693 186.905 9.65594 188.772 9.65594C189.407 9.65594 190.013 9.72128 190.592 9.85194C191.189 9.98261 191.693 10.1879 192.104 10.4679L190.956 13.6319C190.713 13.4639 190.443 13.3333 190.144 13.2399C189.845 13.1466 189.528 13.0999 189.192 13.0999C188.557 13.0999 188.063 13.2866 187.708 13.6599C187.372 14.0146 187.204 14.5559 187.204 15.2839V16.6839L187.316 18.5599V30.6559H182.948ZM180.624 19.2879V15.9279H191.068V19.2879H180.624ZM199.124 30.8799C197.351 30.8799 195.969 30.4319 194.98 29.5359C193.991 28.6213 193.496 27.2679 193.496 25.4759V12.2599H197.864V25.4199C197.864 26.0546 198.032 26.5493 198.368 26.9039C198.704 27.2399 199.161 27.4079 199.74 27.4079C200.431 27.4079 201.019 27.2213 201.504 26.8479L202.68 29.9279C202.232 30.2453 201.691 30.4879 201.056 30.6559C200.44 30.8053 199.796 30.8799 199.124 30.8799ZM191.172 19.2879V15.9279H201.616V19.2879H191.172ZM211.863 30.8799C210.146 30.8799 208.634 30.5439 207.327 29.8719C206.039 29.1999 205.041 28.2853 204.331 27.1279C203.622 25.9519 203.267 24.6173 203.267 23.1239C203.267 21.6119 203.613 20.2773 204.303 19.1199C205.013 17.9439 205.974 17.0293 207.187 16.3759C208.401 15.7039 209.773 15.3679 211.303 15.3679C212.778 15.3679 214.103 15.6853 215.279 16.3199C216.474 16.9359 217.417 17.8319 218.107 19.0079C218.798 20.1653 219.143 21.5559 219.143 23.1799C219.143 23.3479 219.134 23.5439 219.115 23.7679C219.097 23.9733 219.078 24.1693 219.059 24.3559H206.823V21.8079H216.763L215.083 22.5639C215.083 21.7799 214.925 21.0986 214.607 20.5199C214.29 19.9413 213.851 19.4933 213.291 19.1759C212.731 18.8399 212.078 18.6719 211.331 18.6719C210.585 18.6719 209.922 18.8399 209.343 19.1759C208.783 19.4933 208.345 19.9506 208.027 20.5479C207.71 21.1266 207.551 21.8173 207.551 22.6199V23.2919C207.551 24.1133 207.729 24.8413 208.083 25.4759C208.457 26.0919 208.97 26.5679 209.623 26.9039C210.295 27.2213 211.079 27.3799 211.975 27.3799C212.778 27.3799 213.478 27.2586 214.075 27.0159C214.691 26.7733 215.251 26.4093 215.755 25.9239L218.079 28.4439C217.389 29.2279 216.521 29.8346 215.475 30.2639C214.43 30.6746 213.226 30.8799 211.863 30.8799ZM221.771 30.6559V15.5919H225.943V19.8479L225.355 18.6159C225.803 17.5519 226.522 16.7493 227.511 16.2079C228.501 15.6479 229.705 15.3679 231.123 15.3679V19.3999C230.937 19.3813 230.769 19.3719 230.619 19.3719C230.47 19.3533 230.311 19.3439 230.143 19.3439C228.949 19.3439 227.978 19.6893 227.231 20.3799C226.503 21.0519 226.139 22.1066 226.139 23.5439V30.6559H221.771ZM233.63 30.7839C233.203 30.7839 232.835 30.6399 232.526 30.3519C232.227 30.0533 232.078 29.6746 232.078 29.2159C232.078 28.7573 232.227 28.3893 232.526 28.1119C232.835 27.8239 233.203 27.6799 233.63 27.6799C234.067 27.6799 234.435 27.8239 234.734 28.1119C235.033 28.3893 235.182 28.7573 235.182 29.2159C235.182 29.6746 235.033 30.0533 234.734 30.3519C234.435 30.6399 234.067 30.7839 233.63 30.7839ZM236.713 30.6559V22.0479H239.209V30.6559H236.713ZM237.961 20.8479C237.503 20.8479 237.129 20.7146 236.841 20.4479C236.553 20.1813 236.409 19.8506 236.409 19.4559C236.409 19.0613 236.553 18.7306 236.841 18.4639C237.129 18.1973 237.503 18.0639 237.961 18.0639C238.42 18.0639 238.793 18.1919 239.081 18.4479C239.369 18.6933 239.513 19.0133 239.513 19.4079C239.513 19.8239 239.369 20.1706 239.081 20.4479C238.804 20.7146 238.431 20.8479 237.961 20.8479ZM245.462 30.7839C244.545 30.7839 243.729 30.5919 243.014 30.2079C242.31 29.8239 241.75 29.3013 241.334 28.6399C240.929 27.9679 240.726 27.2053 240.726 26.3519C240.726 25.4879 240.929 24.7253 241.334 24.0639C241.75 23.3919 242.31 22.8693 243.014 22.4959C243.729 22.1119 244.545 21.9199 245.462 21.9199C246.369 21.9199 247.179 22.1119 247.894 22.4959C248.609 22.8693 249.169 23.3866 249.574 24.0479C249.979 24.7093 250.182 25.4773 250.182 26.3519C250.182 27.2053 249.979 27.9679 249.574 28.6399C249.169 29.3013 248.609 29.8239 247.894 30.2079C247.179 30.5919 246.369 30.7839 245.462 30.7839ZM245.462 28.7359C245.878 28.7359 246.251 28.6399 246.582 28.4479C246.913 28.2559 247.174 27.9839 247.366 27.6319C247.558 27.2693 247.654 26.8426 247.654 26.3519C247.654 25.8506 247.558 25.4239 247.366 25.0719C247.174 24.7199 246.913 24.4479 246.582 24.2559C246.251 24.0639 245.878 23.9679 245.462 23.9679C245.046 23.9679 244.673 24.0639 244.342 24.2559C244.011 24.4479 243.745 24.7199 243.542 25.0719C243.35 25.4239 243.254 25.8506 243.254 26.3519C243.254 26.8426 243.35 27.2693 243.542 27.6319C243.745 27.9839 244.011 28.2559 244.342 28.4479C244.673 28.6399 245.046 28.7359 245.462 28.7359Z" fill="black"></path>
        </svg>